inDegrees=no
num_controls=7
num_derivatives=13
num_iterations=132
num_multipliers=7
num_parameters=0
num_slacks=7
num_states=26
objective=4.918750
objective_accelerations=0.104168
objective_balance=0.010489
objective_effort=0.079119
objective_height=4.609502
objective_ligament=0.115472
solver_duration=1453.669844
status=Solve_Succeeded
success=true
DataType=double
version=3
OpenSimVersion=4.4-2022-07-23-0e9fedc
endheader
time	/jointset/ground_pelvis/pelvis_tilt/value	/jointset/ground_pelvis/pelvis_tx/value	/jointset/ground_pelvis/pelvis_ty/value	/jointset/hip_l/hip_flexion_l/value	/jointset/hip_l/hip_adduction_l/value	/jointset/hip_l/hip_rotation_l/value	/jointset/back/lumbar_extension/value	/jointset/patellofemoral_l/patellar_flexion_l/value	/jointset/knee_l/knee_flexion_l/value	/jointset/knee_l/knee_adduction_l/value	/jointset/knee_l/knee_rotation_l/value	/jointset/ankle_l/ankle_angle_l/value	/jointset/subtalar_l/subtalar_angle_l/value	/jointset/ground_pelvis/pelvis_tilt/speed	/jointset/ground_pelvis/pelvis_tx/speed	/jointset/ground_pelvis/pelvis_ty/speed	/jointset/hip_l/hip_flexion_l/speed	/jointset/hip_l/hip_adduction_l/speed	/jointset/hip_l/hip_rotation_l/speed	/jointset/back/lumbar_extension/speed	/jointset/patellofemoral_l/patellar_flexion_l/speed	/jointset/knee_l/knee_flexion_l/speed	/jointset/knee_l/knee_adduction_l/speed	/jointset/knee_l/knee_rotation_l/speed	/jointset/ankle_l/ankle_angle_l/speed	/jointset/subtalar_l/subtalar_angle_l/speed	/forceset/tau_hip_flexion_l	/forceset/tau_hip_adduction_l	/forceset/tau_hip_rotation_l	/forceset/tau_knee_flexion_l	/forceset/tau_ankle_angle_l	/forceset/tau_subtalar_angle_l	/forceset/tau_lumbar_extension	lambda_cid13_p0	lambda_cid13_p1	lambda_cid13_p2	lambda_cid13_p3	lambda_cid13_p4	lambda_cid13_p5	lambda_cid14_p0	/jointset/ground_pelvis/pelvis_tilt/accel	/jointset/ground_pelvis/pelvis_tx/accel	/jointset/ground_pelvis/pelvis_ty/accel	/jointset/hip_l/hip_flexion_l/accel	/jointset/hip_l/hip_adduction_l/accel	/jointset/hip_l/hip_rotation_l/accel	/jointset/back/lumbar_extension/accel	/jointset/patellofemoral_l/patellar_flexion_l/accel	/jointset/knee_l/knee_flexion_l/accel	/jointset/knee_l/knee_adduction_l/accel	/jointset/knee_l/knee_rotation_l/accel	/jointset/ankle_l/ankle_angle_l/accel	/jointset/subtalar_l/subtalar_angle_l/accel	gamma_cid13_p0	gamma_cid13_p1	gamma_cid13_p2	gamma_cid13_p3	gamma_cid13_p4	gamma_cid13_p5	gamma_cid14_p0
0	0.0568791576918596	0.1033903474993636	0.9057665897004568	0.1266917050730164	-0.3444158849568507	-0.2523816745608536	-0.2144974744115991	0.2051547269256725	0.2051547269256735	-0.1209039343748074	-0.1743911060616113	0.09024399430361882	0.1072569074010123	0	0	0	0	0	0	0	0	0	0	0	0	0	0.09084654375490764	-0.07789167107688258	-0.009793975161671596	-0.2518996591725625	0.2206409738378243	-0.04370261603779294	-0.01989550654971135	42.56886795532434	14.06160896707095	-5.418467155544757	-47.08066367112058	-447.9630618721992	-79.8990917749686	-26.3563983933253	1.457344875309548	0.8774645752586036	-0.1495396072183965	-0.05464130492001647	-0.08273701025831004	1.271967919036985	-2.46027277163362	4.52916050763802	4.529160507637882	1.133606686792038	-0.1062737616032486	3.620601983522443	1.068029340236947	3.897308044975356e-09	1.87967969053612e-07	-8.861016719204137e-08	1.93900158232887e-08	4.812986346400113e-08	1.846849009374543e-07	2.349112467654946e-08
0.01	0.05695232470437395	0.1034335440435231	0.9057594178212358	0.1266870028645541	-0.3444194008689717	-0.2523159661448945	-0.2146199173980979	0.2053764240860749	0.2053764240861105	-0.1208475651693523	-0.1743926516345499	0.09042204260661707	0.1073099954498473	0.01456972633202645	0.008570459946930613	-0.001429952158746043	-0.0009269209039336172	-0.0007130419864274219	0.01308499157039676	-0.02432724103820152	0.04409966562200658	0.0440996656220053	0.01118179059604958	-0.0002982471408393158	0.03538618590195589	0.01053727896610857	0.08851884611875674	-0.08528596539494043	-0.009234399617585464	-0.2470822293261538	0.2100041595413084	-0.03443755052243618	-0.0183010327111314	39.70455102135855	10.17853176914494	-4.38730049007572	-44.77427173446369	-448.4636634053882	-87.61695662660675	-26.35607002192254	1.447235130572528	0.8365132498290878	-0.1390498414204216	-0.1096890109947862	-0.06707169660244515	1.318278615664035	-2.394746330802321	4.314399922418817	4.314399922418793	1.096674197397356	0.01001272326713299	3.464110518967531	1.034508584892888	5.100576668891588e-09	2.361695913635565e-07	-1.015853465323544e-07	2.350891944388691e-08	2.940266138619171e-08	2.064808978614069e-07	3.14810814420704e-08
0.02	0.05716927870390037	0.1035603804962361	0.905738081056184	0.1266734371414656	-0.3444303439816969	-0.25212110504528	-0.2149807921071561	0.206031923969288	0.2060319239692873	-0.1206821362675281	-0.1743968570961758	0.09094724949372913	0.1074660425703624	0.02875739740100683	0.01672798171069089	-0.002832977166179213	-0.001772702922427431	-0.001485440123525094	0.0258305367257112	-0.0476863445119682	0.0867605445614841	0.08676054456148209	0.02181193924752426	-0.0005319777380192624	0.06943171682132565	0.02059181433601632	0.08619114848223371	-0.09268025971313462	-0.008674824073487698	-0.2422647994800265	0.1993673452446444	-0.02517248500727639	-0.01670655887269996	36.86465333744283	6.298550430531654	-3.365047353312762	-42.56760130136153	-448.5876563242053	-95.2363925938587	-26.35502797515193	1.380933822700266	0.7948769386245956	-0.1441541769558239	-0.03841352783206147	-0.09460824039235818	1.204078636020517	-2.266645258746693	4.241403171132202	4.241403171132174	1.023278297877066	-0.09337045287136395	3.352470987005287	0.971480620996808	6.30384529280782e-09	2.84371213673501e-07	-1.145605258726674e-07	2.762782306448514e-08	1.067545930838229e-08	2.282768947853594e-07	3.947103820759135e-08
0.03	0.05752611208141857	0.1037667751847035	0.9057027824263865	0.1266519660882725	-0.3444492914384796	-0.2518010108922966	-0.2155704447741622	0.2071070935551866	0.2071070935551706	-0.1204130508689137	-0.1744035649446305	0.09180637498613499	0.1077203407623684	0.04254271508866597	0.02448684003488868	-0.00422715808705043	-0.002507572588871678	-0.002311864500746001	0.03813352845325645	-0.07009216189813972	0.1280400164209661	0.1280400164209637	0.03191627996628812	-0.000789757815753199	0.1021800419809833	0.03019652273717546	0.08407843696967425	-0.08754775147907944	-0.008248020271321189	-0.2379487866876719	0.1928074385836231	-0.02729048157744094	-0.01523103316832834	34.57013067023571	7.4232369632364	-3.319430378606301	-40.44717394809207	-448.9471941011095	-92.33865246495066	-26.35325408913647	1.367347418013576	0.7567784294926707	-0.1371093842881071	-0.08893261405003014	-0.07784622142144536	1.235219026991113	-2.204745929992946	4.036207837200799	4.036207837200713	0.9907125724844208	0.01096981065085872	3.204020824526721	0.9442395616383922	6.220093043204953e-09	2.960786523364883e-07	-1.131010924633442e-07	2.896606575911841e-08	-5.687064642625187e-09	2.250288486354065e-07	4.183042409326074e-08
